<svg width="1000" height="1000" viewBox="0 0 1000 1000" fill="none" xmlns="http://www.w3.org/2000/svg">
<rect width="1000" height="1000" fill="#FF5A3D"/>
<path d="M539.275 317.058L682.941 460.724" stroke="white" stroke-width="45.8333" stroke-linecap="round" stroke-linejoin="round"/>
<path d="M317.027 539.287L460.693 682.953" stroke="white" stroke-width="45.8333" stroke-linecap="round" stroke-linejoin="round"/>
<path d="M666.668 500H333.335" stroke="white" stroke-width="45.8333" stroke-linecap="round" stroke-linejoin="round"/>
<path d="M500.028 777.778C469.346 777.778 444.473 752.905 444.473 722.223C444.473 691.54 469.346 666.667 500.028 666.667C530.711 666.667 555.584 691.54 555.584 722.223C555.584 752.905 530.711 777.778 500.028 777.778Z" stroke="white" stroke-width="45.8333" stroke-linecap="round" stroke-linejoin="round"/>
<path d="M500.028 333.34C469.346 333.34 444.473 308.467 444.473 277.785C444.473 247.102 469.346 222.229 500.028 222.229C530.711 222.229 555.584 247.102 555.584 277.785C555.584 308.467 530.711 333.34 500.028 333.34Z" stroke="white" stroke-width="45.8333" stroke-linecap="round" stroke-linejoin="round"/>
<path d="M277.776 555.549C247.094 555.549 222.221 530.676 222.221 499.994C222.221 469.311 247.094 444.438 277.776 444.438C308.459 444.438 333.332 469.311 333.332 499.994C333.332 530.676 308.459 555.549 277.776 555.549Z" stroke="white" stroke-width="45.8333" stroke-linecap="round" stroke-linejoin="round"/>
<path d="M722.196 555.549C691.514 555.549 666.641 530.676 666.641 499.994C666.641 469.311 691.514 444.438 722.196 444.438C752.879 444.438 777.752 469.311 777.752 499.994C777.752 530.676 752.879 555.549 722.196 555.549Z" stroke="white" stroke-width="45.8333" stroke-linecap="round" stroke-linejoin="round"/>
</svg>
